<?xml version="1.0" encoding="utf-8"?>
<!-- Generator: Adobe Illustrator 25.2.0, SVG Export Plug-In . SVG Version: 6.00 Build 0)  -->
<svg version="1.1" id="Capa_1" xmlns="http://www.w3.org/2000/svg" xmlns:xlink="http://www.w3.org/1999/xlink" x="0px" y="0px"
	 viewBox="0 0 512 512" style="enable-background:new 0 0 512 512;" xml:space="preserve">
<style type="text/css">
	.st0{fill:#FF72B9;}
</style>
<g>
	<path class="st0" d="M439.5,68.7H72.5c-40,0-72.5,32.5-72.5,72.5v229.7c0,40,32.5,72.5,72.5,72.5h367.1c40,0,72.5-32.5,72.5-72.5
		V141.2C512,101.2,479.5,68.7,439.5,68.7L439.5,68.7z M185.8,184l-76.2,76.2l67.8,67.8c5.9,5.9,5.9,15.4,0,21.2
		c-5.9,5.9-15.4,5.9-21.2,0l-78.4-78.4c-5.9-5.9-5.9-15.4,0-21.2l86.8-86.8c5.9-5.9,15.4-5.9,21.2,0
		C191.7,168.6,191.7,178.1,185.8,184L185.8,184z M309.5,148.7l-79.3,224.6c-2.8,7.8-11.3,11.9-19.1,9.1s-11.9-11.3-9.1-19.1
		l79.3-224.6c2.8-7.8,11.3-11.9,19.1-9.1C308.2,132.3,312.3,140.9,309.5,148.7L309.5,148.7z M434.2,262.4l-86.8,86.8
		c-5.9,5.9-15.4,5.9-21.2,0c-5.9-5.9-5.9-15.4,0-21.2l76.2-76.2L334.6,184c-5.9-5.9-5.9-15.4,0-21.2c5.9-5.9,15.4-5.9,21.2,0
		l78.4,78.4C440.1,247,440.1,256.5,434.2,262.4L434.2,262.4z"/>
</g>
</svg>
